<mxfile host="app.diagrams.net" agent="Mozilla/5.0 (Windows NT 10.0; Win64; x64) AppleWebKit/537.36 (KHTML, like Gecko) Chrome/130.0.0.0 Safari/537.36 Edg/130.0.0.0" version="24.8.4">
  <diagram name="第 1 页" id="2JoYq1CiL_ViwrK-kZay">
    <mxGraphModel dx="1255" dy="855" grid="1" gridSize="10" guides="1" tooltips="1" connect="1" arrows="1" fold="1" page="1" pageScale="1" pageWidth="827" pageHeight="1169" math="0" shadow="0">
      <root>
        <mxCell id="0" />
        <mxCell id="1" parent="0" />
        <mxCell id="nkLPv6YQ5zhJVcPbAPPE-1" value="" style="edgeStyle=orthogonalEdgeStyle;rounded=0;orthogonalLoop=1;jettySize=auto;html=1;exitX=0;exitY=0.3333333333333333;exitDx=0;exitDy=0;exitPerimeter=0;endArrow=none;endFill=0;" parent="1" source="nkLPv6YQ5zhJVcPbAPPE-2" target="nkLPv6YQ5zhJVcPbAPPE-20" edge="1">
          <mxGeometry relative="1" as="geometry" />
        </mxCell>
        <mxCell id="nkLPv6YQ5zhJVcPbAPPE-2" value="Administrator" style="shape=umlActor;verticalLabelPosition=bottom;verticalAlign=top;html=1;outlineConnect=0;" parent="1" vertex="1">
          <mxGeometry x="726" y="544.5" width="30" height="60" as="geometry" />
        </mxCell>
        <mxCell id="nkLPv6YQ5zhJVcPbAPPE-3" value="User" style="shape=umlActor;verticalLabelPosition=bottom;verticalAlign=top;html=1;outlineConnect=0;" parent="1" vertex="1">
          <mxGeometry x="100" y="420" width="30" height="60" as="geometry" />
        </mxCell>
        <mxCell id="nkLPv6YQ5zhJVcPbAPPE-4" value="Uploader" style="shape=umlActor;verticalLabelPosition=bottom;verticalAlign=top;html=1;outlineConnect=0;" parent="1" vertex="1">
          <mxGeometry x="100" y="584.5" width="30" height="60" as="geometry" />
        </mxCell>
        <mxCell id="nkLPv6YQ5zhJVcPbAPPE-5" value="" style="endArrow=block;endSize=15;endFill=0;html=1;rounded=0;exitX=0.5;exitY=0;exitDx=0;exitDy=0;exitPerimeter=0;" parent="1" source="nkLPv6YQ5zhJVcPbAPPE-4" edge="1">
          <mxGeometry width="160" relative="1" as="geometry">
            <mxPoint x="230" y="470" as="sourcePoint" />
            <mxPoint x="115" y="510" as="targetPoint" />
          </mxGeometry>
        </mxCell>
        <mxCell id="nkLPv6YQ5zhJVcPbAPPE-6" value="" style="endArrow=block;endSize=15;endFill=0;html=1;rounded=0;" parent="1" edge="1">
          <mxGeometry width="160" relative="1" as="geometry">
            <mxPoint x="114" y="330" as="sourcePoint" />
            <mxPoint x="114" y="410" as="targetPoint" />
          </mxGeometry>
        </mxCell>
        <mxCell id="nkLPv6YQ5zhJVcPbAPPE-7" value="Release tutorial" style="ellipse;whiteSpace=wrap;html=1;" parent="1" vertex="1">
          <mxGeometry x="210" y="570" width="140" height="40" as="geometry" />
        </mxCell>
        <mxCell id="nkLPv6YQ5zhJVcPbAPPE-8" value="Buy tutorials" style="ellipse;whiteSpace=wrap;html=1;" parent="1" vertex="1">
          <mxGeometry x="250" y="330" width="140" height="40" as="geometry" />
        </mxCell>
        <mxCell id="nkLPv6YQ5zhJVcPbAPPE-11" value="Schedule punch in" style="ellipse;whiteSpace=wrap;html=1;" parent="1" vertex="1">
          <mxGeometry x="500" y="340" width="140" height="40" as="geometry" />
        </mxCell>
        <mxCell id="nkLPv6YQ5zhJVcPbAPPE-12" value="" style="endArrow=none;endFill=0;endSize=12;html=1;rounded=0;exitX=0.75;exitY=0.1;exitDx=0;exitDy=0;exitPerimeter=0;entryX=0;entryY=0.5;entryDx=0;entryDy=0;" parent="1" source="nkLPv6YQ5zhJVcPbAPPE-4" target="nkLPv6YQ5zhJVcPbAPPE-7" edge="1">
          <mxGeometry width="160" relative="1" as="geometry">
            <mxPoint x="630" y="340" as="sourcePoint" />
            <mxPoint x="790" y="340" as="targetPoint" />
          </mxGeometry>
        </mxCell>
        <mxCell id="nkLPv6YQ5zhJVcPbAPPE-13" value="" style="endArrow=none;endFill=0;endSize=12;html=1;rounded=0;exitX=1;exitY=0.3333333333333333;exitDx=0;exitDy=0;exitPerimeter=0;entryX=0;entryY=1;entryDx=0;entryDy=0;" parent="1" source="nkLPv6YQ5zhJVcPbAPPE-3" target="nkLPv6YQ5zhJVcPbAPPE-8" edge="1">
          <mxGeometry width="160" relative="1" as="geometry">
            <mxPoint x="210" y="400" as="sourcePoint" />
            <mxPoint x="370" y="340" as="targetPoint" />
          </mxGeometry>
        </mxCell>
        <mxCell id="nkLPv6YQ5zhJVcPbAPPE-14" value="Browse the tutorial" style="ellipse;whiteSpace=wrap;html=1;" parent="1" vertex="1">
          <mxGeometry x="234" y="498" width="140" height="40" as="geometry" />
        </mxCell>
        <mxCell id="nkLPv6YQ5zhJVcPbAPPE-15" value="" style="endArrow=none;endFill=0;endSize=12;html=1;rounded=0;exitX=1;exitY=0.3333333333333333;exitDx=0;exitDy=0;exitPerimeter=0;" parent="1" source="nkLPv6YQ5zhJVcPbAPPE-3" target="nkLPv6YQ5zhJVcPbAPPE-14" edge="1">
          <mxGeometry width="160" relative="1" as="geometry">
            <mxPoint x="250" y="370" as="sourcePoint" />
            <mxPoint x="360" y="428" as="targetPoint" />
          </mxGeometry>
        </mxCell>
        <mxCell id="nkLPv6YQ5zhJVcPbAPPE-16" value="&amp;lt;&amp;lt;include&amp;gt;&amp;gt;" style="endArrow=open;endSize=12;dashed=1;html=1;rounded=0;exitX=0.5;exitY=1;exitDx=0;exitDy=0;entryX=0.5;entryY=0;entryDx=0;entryDy=0;" parent="1" source="nkLPv6YQ5zhJVcPbAPPE-7" target="nkLPv6YQ5zhJVcPbAPPE-27" edge="1">
          <mxGeometry x="-0.0333" y="40" width="160" relative="1" as="geometry">
            <mxPoint x="289.78" y="595.9999999999999" as="sourcePoint" />
            <mxPoint x="290" y="660" as="targetPoint" />
            <mxPoint as="offset" />
          </mxGeometry>
        </mxCell>
        <mxCell id="nkLPv6YQ5zhJVcPbAPPE-20" value="&lt;p class=&quot;MsoNormal&quot;&gt;&lt;span style=&quot;mso-spacerun:&#39;yes&#39;;font-family:宋体;mso-ascii-font-family:Calibri;&lt;br/&gt;mso-hansi-font-family:Calibri;mso-bidi-font-family:&#39;Times New Roman&#39;;font-size:10.5000pt;&lt;br/&gt;mso-font-kerning:1.0000pt;&quot;&gt;&lt;font face=&quot;Calibri&quot;&gt;Examine&amp;nbsp;&lt;/font&gt;&lt;/span&gt;&lt;/p&gt;" style="ellipse;whiteSpace=wrap;html=1;" parent="1" vertex="1">
          <mxGeometry x="460" y="545" width="140" height="40" as="geometry" />
        </mxCell>
        <mxCell id="nkLPv6YQ5zhJVcPbAPPE-21" value="&lt;p class=&quot;MsoNormal&quot;&gt;&lt;font face=&quot;Calibri&quot;&gt;&lt;span style=&quot;font-size: 14px;&quot;&gt;Announce&lt;/span&gt;&lt;/font&gt;&lt;br&gt;&lt;/p&gt;" style="ellipse;whiteSpace=wrap;html=1;" parent="1" vertex="1">
          <mxGeometry x="460" y="490" width="140" height="40" as="geometry" />
        </mxCell>
        <mxCell id="nkLPv6YQ5zhJVcPbAPPE-22" value="&lt;p class=&quot;MsoNormal&quot;&gt;&lt;font face=&quot;Calibri&quot;&gt;&lt;span style=&quot;font-size: 14px;&quot;&gt;Examine new tutorial&lt;/span&gt;&lt;/font&gt;&lt;br&gt;&lt;/p&gt;" style="ellipse;whiteSpace=wrap;html=1;" parent="1" vertex="1">
          <mxGeometry x="540" y="640" width="140" height="40" as="geometry" />
        </mxCell>
        <mxCell id="nkLPv6YQ5zhJVcPbAPPE-23" value="&lt;p class=&quot;MsoNormal&quot;&gt;&lt;font face=&quot;Calibri&quot;&gt;&lt;span style=&quot;font-size: 14px;&quot;&gt;Examine comments&lt;/span&gt;&lt;/font&gt;&lt;/p&gt;" style="ellipse;whiteSpace=wrap;html=1;" parent="1" vertex="1">
          <mxGeometry x="380" y="640" width="140" height="40" as="geometry" />
        </mxCell>
        <mxCell id="nkLPv6YQ5zhJVcPbAPPE-24" value="" style="endArrow=block;endSize=15;endFill=0;html=1;rounded=0;exitX=0.5;exitY=0;exitDx=0;exitDy=0;entryX=0.699;entryY=0.958;entryDx=0;entryDy=0;entryPerimeter=0;" parent="1" source="nkLPv6YQ5zhJVcPbAPPE-22" target="nkLPv6YQ5zhJVcPbAPPE-20" edge="1">
          <mxGeometry width="160" relative="1" as="geometry">
            <mxPoint x="85" y="580" as="sourcePoint" />
            <mxPoint x="110" y="490" as="targetPoint" />
          </mxGeometry>
        </mxCell>
        <mxCell id="nkLPv6YQ5zhJVcPbAPPE-25" value="" style="endArrow=block;endSize=15;endFill=0;html=1;rounded=0;exitX=0.5;exitY=0;exitDx=0;exitDy=0;entryX=0;entryY=1;entryDx=0;entryDy=0;" parent="1" source="nkLPv6YQ5zhJVcPbAPPE-23" target="nkLPv6YQ5zhJVcPbAPPE-20" edge="1">
          <mxGeometry width="160" relative="1" as="geometry">
            <mxPoint x="95" y="590" as="sourcePoint" />
            <mxPoint x="530" y="640" as="targetPoint" />
          </mxGeometry>
        </mxCell>
        <mxCell id="nkLPv6YQ5zhJVcPbAPPE-26" value="" style="endArrow=none;endFill=0;endSize=12;html=1;rounded=0;exitX=0.25;exitY=0.1;exitDx=0;exitDy=0;exitPerimeter=0;entryX=1;entryY=1;entryDx=0;entryDy=0;" parent="1" source="nkLPv6YQ5zhJVcPbAPPE-2" target="nkLPv6YQ5zhJVcPbAPPE-21" edge="1">
          <mxGeometry width="160" relative="1" as="geometry">
            <mxPoint x="173" y="586" as="sourcePoint" />
            <mxPoint x="230" y="586" as="targetPoint" />
          </mxGeometry>
        </mxCell>
        <mxCell id="nkLPv6YQ5zhJVcPbAPPE-27" value="Get revenue" style="ellipse;whiteSpace=wrap;html=1;" parent="1" vertex="1">
          <mxGeometry x="210" y="640" width="140" height="40" as="geometry" />
        </mxCell>
        <mxCell id="nkLPv6YQ5zhJVcPbAPPE-28" value="Uploader" style="shape=umlActor;verticalLabelPosition=bottom;verticalAlign=top;html=1;outlineConnect=0;" parent="1" vertex="1">
          <mxGeometry x="100" y="250" width="30" height="60" as="geometry" />
        </mxCell>
        <mxCell id="nkLPv6YQ5zhJVcPbAPPE-29" value="Get discount" style="ellipse;whiteSpace=wrap;html=1;" parent="1" vertex="1">
          <mxGeometry x="250" y="250" width="140" height="40" as="geometry" />
        </mxCell>
        <mxCell id="nkLPv6YQ5zhJVcPbAPPE-30" value="" style="endArrow=none;endFill=0;endSize=12;html=1;rounded=0;exitX=1;exitY=0.3333333333333333;exitDx=0;exitDy=0;exitPerimeter=0;entryX=0;entryY=0.5;entryDx=0;entryDy=0;" parent="1" source="nkLPv6YQ5zhJVcPbAPPE-28" target="nkLPv6YQ5zhJVcPbAPPE-29" edge="1">
          <mxGeometry width="160" relative="1" as="geometry">
            <mxPoint x="140" y="450" as="sourcePoint" />
            <mxPoint x="251" y="414" as="targetPoint" />
          </mxGeometry>
        </mxCell>
        <mxCell id="nkLPv6YQ5zhJVcPbAPPE-31" value="&amp;lt;&amp;lt;extend&amp;gt;&amp;gt;" style="endArrow=open;endSize=12;dashed=1;html=1;rounded=0;entryX=0.5;entryY=0;entryDx=0;entryDy=0;exitX=0.5;exitY=1;exitDx=0;exitDy=0;" parent="1" source="nkLPv6YQ5zhJVcPbAPPE-29" target="nkLPv6YQ5zhJVcPbAPPE-8" edge="1">
          <mxGeometry x="-0.1429" y="-40" width="160" relative="1" as="geometry">
            <mxPoint x="349" y="414" as="sourcePoint" />
            <mxPoint x="440" y="450" as="targetPoint" />
            <mxPoint as="offset" />
          </mxGeometry>
        </mxCell>
        <mxCell id="nkLPv6YQ5zhJVcPbAPPE-34" value="" style="endArrow=none;html=1;rounded=0;fontFamily=Helvetica;fontSize=12;fontColor=default;" parent="1" edge="1">
          <mxGeometry width="50" height="50" relative="1" as="geometry">
            <mxPoint x="190" y="710" as="sourcePoint" />
            <mxPoint x="690" y="710" as="targetPoint" />
          </mxGeometry>
        </mxCell>
        <mxCell id="nkLPv6YQ5zhJVcPbAPPE-35" value="" style="endArrow=none;html=1;rounded=0;fontFamily=Helvetica;fontSize=12;fontColor=default;" parent="1" edge="1">
          <mxGeometry width="50" height="50" relative="1" as="geometry">
            <mxPoint x="190" y="229" as="sourcePoint" />
            <mxPoint x="690" y="229" as="targetPoint" />
          </mxGeometry>
        </mxCell>
        <mxCell id="nkLPv6YQ5zhJVcPbAPPE-36" value="" style="endArrow=none;html=1;rounded=0;fontFamily=Helvetica;fontSize=12;fontColor=default;" parent="1" edge="1">
          <mxGeometry width="50" height="50" relative="1" as="geometry">
            <mxPoint x="190" y="230" as="sourcePoint" />
            <mxPoint x="190" y="710" as="targetPoint" />
          </mxGeometry>
        </mxCell>
        <mxCell id="nkLPv6YQ5zhJVcPbAPPE-37" value="" style="endArrow=none;html=1;rounded=0;fontFamily=Helvetica;fontSize=12;fontColor=default;" parent="1" edge="1">
          <mxGeometry width="50" height="50" relative="1" as="geometry">
            <mxPoint x="690" y="230" as="sourcePoint" />
            <mxPoint x="690" y="710" as="targetPoint" />
          </mxGeometry>
        </mxCell>
        <mxCell id="nkLPv6YQ5zhJVcPbAPPE-38" value="Intelligent analysis of fitness movements" style="ellipse;whiteSpace=wrap;html=1;" parent="1" vertex="1">
          <mxGeometry x="570" y="130" width="140" height="40" as="geometry" />
        </mxCell>
        <mxCell id="nkLPv6YQ5zhJVcPbAPPE-39" value="&amp;lt;&amp;lt;include&amp;gt;&amp;gt;" style="endArrow=open;endSize=12;dashed=1;html=1;rounded=0;entryX=0;entryY=1;entryDx=0;entryDy=0;exitX=0.5;exitY=0;exitDx=0;exitDy=0;" parent="1" source="nkLPv6YQ5zhJVcPbAPPE-11" target="nkLPv6YQ5zhJVcPbAPPE-38" edge="1">
          <mxGeometry x="0.0667" y="-25" width="160" relative="1" as="geometry">
            <mxPoint x="570" y="380" as="sourcePoint" />
            <mxPoint x="620" y="380" as="targetPoint" />
            <mxPoint as="offset" />
          </mxGeometry>
        </mxCell>
        <mxCell id="nkLPv6YQ5zhJVcPbAPPE-40" value="" style="rounded=0;whiteSpace=wrap;html=1;fillColor=none;" parent="1" vertex="1">
          <mxGeometry x="510" y="80" width="260" height="110" as="geometry" />
        </mxCell>
        <mxCell id="nkLPv6YQ5zhJVcPbAPPE-41" value="&lt;span style=&quot;color: rgb(0, 0, 0); font-family: Helvetica; font-size: 12px; font-style: normal; font-variant-ligatures: normal; font-variant-caps: normal; font-weight: 400; letter-spacing: normal; orphans: 2; text-align: center; text-indent: 0px; text-transform: none; widows: 2; word-spacing: 0px; -webkit-text-stroke-width: 0px; background-color: rgb(251, 251, 251); text-decoration-thickness: initial; text-decoration-style: initial; text-decoration-color: initial; float: none; display: inline !important;&quot;&gt;Intelligent Fitness Movement Analysis System&lt;/span&gt;" style="text;whiteSpace=wrap;html=1;" parent="1" vertex="1">
          <mxGeometry x="515" y="80" width="250" height="40" as="geometry" />
        </mxCell>
        <mxCell id="nkLPv6YQ5zhJVcPbAPPE-42" value="Recommended fitness equipment by the system" style="ellipse;whiteSpace=wrap;html=1;" parent="1" vertex="1">
          <mxGeometry x="260" y="110" width="150" height="60" as="geometry" />
        </mxCell>
        <mxCell id="nkLPv6YQ5zhJVcPbAPPE-43" value="" style="rounded=0;whiteSpace=wrap;html=1;fillColor=none;" parent="1" vertex="1">
          <mxGeometry x="220" y="80" width="230" height="110" as="geometry" />
        </mxCell>
        <mxCell id="nkLPv6YQ5zhJVcPbAPPE-44" value="&lt;span style=&quot;color: rgb(0, 0, 0); font-family: Helvetica; font-size: 12px; font-style: normal; font-variant-ligatures: normal; font-variant-caps: normal; font-weight: 400; letter-spacing: normal; orphans: 2; text-align: center; text-indent: 0px; text-transform: none; widows: 2; word-spacing: 0px; -webkit-text-stroke-width: 0px; background-color: rgb(251, 251, 251); text-decoration-thickness: initial; text-decoration-style: initial; text-decoration-color: initial; float: none; display: inline !important;&quot;&gt;Fitness equipment system&lt;/span&gt;" style="text;whiteSpace=wrap;html=1;" parent="1" vertex="1">
          <mxGeometry x="250" y="80" width="170" height="40" as="geometry" />
        </mxCell>
        <mxCell id="nkLPv6YQ5zhJVcPbAPPE-45" value="&amp;lt;&amp;lt;include&amp;gt;&amp;gt;" style="endArrow=open;endSize=12;dashed=1;html=1;rounded=0;exitX=0;exitY=0;exitDx=0;exitDy=0;entryX=0.5;entryY=1;entryDx=0;entryDy=0;" parent="1" source="nkLPv6YQ5zhJVcPbAPPE-11" target="nkLPv6YQ5zhJVcPbAPPE-42" edge="1">
          <mxGeometry x="0.0667" y="-25" width="160" relative="1" as="geometry">
            <mxPoint x="500" y="360" as="sourcePoint" />
            <mxPoint x="601" y="174" as="targetPoint" />
            <mxPoint as="offset" />
          </mxGeometry>
        </mxCell>
        <mxCell id="l29hMZEsNcgdZYmK5G0j-1" value="" style="endArrow=none;endFill=0;endSize=12;html=1;rounded=0;exitX=1;exitY=0.3333333333333333;exitDx=0;exitDy=0;exitPerimeter=0;entryX=0;entryY=0.5;entryDx=0;entryDy=0;" parent="1" source="nkLPv6YQ5zhJVcPbAPPE-3" target="nkLPv6YQ5zhJVcPbAPPE-11" edge="1">
          <mxGeometry width="160" relative="1" as="geometry">
            <mxPoint x="140" y="450" as="sourcePoint" />
            <mxPoint x="261" y="386" as="targetPoint" />
          </mxGeometry>
        </mxCell>
        <mxCell id="l29hMZEsNcgdZYmK5G0j-2" value="View the fitness progress and data" style="ellipse;whiteSpace=wrap;html=1;" parent="1" vertex="1">
          <mxGeometry x="340" y="430" width="140" height="40" as="geometry" />
        </mxCell>
        <mxCell id="l29hMZEsNcgdZYmK5G0j-3" value="" style="endArrow=none;endFill=0;endSize=12;html=1;rounded=0;entryX=0;entryY=0.5;entryDx=0;entryDy=0;" parent="1" target="l29hMZEsNcgdZYmK5G0j-2" edge="1">
          <mxGeometry width="160" relative="1" as="geometry">
            <mxPoint x="130" y="440" as="sourcePoint" />
            <mxPoint x="261" y="386" as="targetPoint" />
          </mxGeometry>
        </mxCell>
      </root>
    </mxGraphModel>
  </diagram>
</mxfile>
